<svg width="232" height="225" viewBox="0 0 232 225" fill="none" xmlns="http://www.w3.org/2000/svg">
<ellipse cx="116" cy="112.5" rx="116" ry="112.5" fill="#2D9964"/>
<path d="M64.672 144C63.264 144 62.176 143.648 61.408 142.944C60.704 142.176 60.352 141.088 60.352 139.68V80.64C60.352 79.232 60.704 78.176 61.408 77.472C62.176 76.704 63.264 76.32 64.672 76.32H100.384C101.472 76.32 102.304 76.608 102.88 77.184C103.456 77.76 103.744 78.56 103.744 79.584C103.744 80.672 103.456 81.504 102.88 82.08C102.304 82.656 101.472 82.944 100.384 82.944H68.032V106.368H98.368C99.456 106.368 100.288 106.656 100.864 107.232C101.44 107.744 101.728 108.544 101.728 109.632C101.728 110.72 101.44 111.552 100.864 112.128C100.288 112.704 99.456 112.992 98.368 112.992H68.032V137.376H100.384C101.472 137.376 102.304 137.664 102.88 138.24C103.456 138.816 103.744 139.616 103.744 140.64C103.744 141.728 103.456 142.56 102.88 143.136C102.304 143.712 101.472 144 100.384 144H64.672ZM120.641 144C119.233 144 118.145 143.648 117.377 142.944C116.673 142.176 116.321 141.088 116.321 139.68V80.64C116.321 79.232 116.673 78.176 117.377 77.472C118.145 76.704 119.233 76.32 120.641 76.32H139.169C150.113 76.32 158.561 79.2 164.513 84.96C170.465 90.72 173.441 99.104 173.441 110.112C173.441 115.616 172.673 120.48 171.137 124.704C169.665 128.864 167.457 132.384 164.513 135.264C161.569 138.144 157.985 140.32 153.761 141.792C149.537 143.264 144.673 144 139.169 144H120.641ZM124.193 137.28H138.593C143.073 137.28 146.945 136.704 150.209 135.552C153.537 134.4 156.289 132.704 158.465 130.464C160.705 128.224 162.369 125.408 163.457 122.016C164.545 118.56 165.089 114.592 165.089 110.112C165.089 101.088 162.881 94.336 158.465 89.856C154.049 85.312 147.425 83.04 138.593 83.04H124.193V137.28Z" fill="white"/>
</svg>
