<svg width="512" height="512" viewBox="0 0 512 512" fill="none" xmlns="http://www.w3.org/2000/svg">
<g clip-path="url(#clip0_148_27)">
<path d="M405.333 42.6667H384V21.3333C384 9.6 374.4 0 362.667 0C350.933 0 341.333 9.6 341.333 21.3333V42.6667H170.667V21.3333C170.667 9.6 161.067 0 149.333 0C137.6 0 128 9.6 128 21.3333V42.6667H106.667C47.7867 42.6667 0 90.4533 0 149.333V405.333C0 464.213 47.7867 512 106.667 512H405.333C464.213 512 512 464.213 512 405.333V149.333C512 90.4533 464.213 42.6667 405.333 42.6667ZM234.667 192V256H170.667V192H234.667ZM341.333 192V256H277.333V192H341.333ZM469.333 192V256H384V192H469.333ZM128 256H42.6667V192H128V256ZM42.6667 298.667H128V362.667H42.6667V298.667ZM170.667 298.667H234.667V362.667H170.667V298.667ZM234.667 405.333V469.333H170.667V405.333H234.667ZM277.333 405.333H341.333V469.333H277.333V405.333ZM277.333 362.667V298.667H341.333V362.667H277.333ZM384 298.667H469.333V362.667H384V298.667ZM106.667 85.3333H405.333C440.533 85.3333 469.333 114.133 469.333 149.333H42.6667C42.6667 114.133 71.4667 85.3333 106.667 85.3333ZM42.6667 405.333H128V469.333H106.667C71.4667 469.333 42.6667 440.533 42.6667 405.333ZM405.333 469.333H384V405.333H469.333C469.333 440.533 440.533 469.333 405.333 469.333Z" fill="white"/>
</g>
<defs>
<clipPath id="clip0_148_27">
<rect width="512" height="512" fill="white"/>
</clipPath>
</defs>
</svg>
