<svg width="512" height="512" viewBox="0 0 512 512" fill="none" xmlns="http://www.w3.org/2000/svg">
<g clip-path="url(#clip0_148_29)">
<path d="M490.667 512H106.667C47.7867 512 0 464.213 0 405.333V21.3333C0 9.6 9.6 0 21.3333 0C33.0667 0 42.6667 9.6 42.6667 21.3333V405.333C42.6667 440.533 71.4667 469.333 106.667 469.333H490.667C502.4 469.333 512 478.933 512 490.667C512 502.4 502.4 512 490.667 512ZM512 362.667C512 350.933 502.4 341.333 490.667 341.333H362.667C350.933 341.333 341.333 350.933 341.333 362.667C341.333 374.4 350.933 384 362.667 384H490.667C502.4 384 512 374.4 512 362.667ZM426.667 234.667C426.667 222.933 417.067 213.333 405.333 213.333H213.333C201.6 213.333 192 222.933 192 234.667C192 246.4 201.6 256 213.333 256H405.333C417.067 256 426.667 246.4 426.667 234.667ZM277.333 106.667C277.333 94.9333 267.733 85.3333 256 85.3333H128C116.267 85.3333 106.667 94.9333 106.667 106.667C106.667 118.4 116.267 128 128 128H256C267.733 128 277.333 118.4 277.333 106.667Z" fill="white"/>
</g>
<defs>
<clipPath id="clip0_148_29">
<rect width="512" height="512" fill="white"/>
</clipPath>
</defs>
</svg>
