<svg width="512" height="512" viewBox="0 0 512 512" fill="none" xmlns="http://www.w3.org/2000/svg">
<g clip-path="url(#clip0_148_37)">
<path d="M362.667 277.333H234.667V256H362.667V277.333ZM362.667 170.667H234.667V192H362.667V170.667ZM362.667 341.333H234.667V362.667H362.667V341.333ZM192 170.667H149.333V192H192V170.667ZM192 256H149.333V277.333H192V256ZM192 341.333H149.333V362.667H192V341.333ZM448 458.667V42.6667H340.267C335.317 18.3467 313.771 0 288 0H224C198.229 0 176.704 18.3467 171.733 42.6667H64V458.667C64 488.085 87.936 512 117.333 512H394.667C424.064 512 448 488.085 448 458.667ZM192 64V53.3333C192 35.6907 206.357 21.3333 224 21.3333H288C305.643 21.3333 320 35.6907 320 53.3333V64H426.667V458.667C426.667 476.309 412.309 490.667 394.667 490.667H117.333C99.6907 490.667 85.3333 476.309 85.3333 458.667V64H192Z" fill="white"/>
</g>
<defs>
<clipPath id="clip0_148_37">
<rect width="512" height="512" fill="white"/>
</clipPath>
</defs>
</svg>
