<svg width="512" height="512" viewBox="0 0 512 512" fill="none" xmlns="http://www.w3.org/2000/svg">
<g clip-path="url(#clip0_148_35)">
<path d="M234.496 482.197C230.805 482.197 227.2 480.277 225.237 476.843L202.645 437.461L180.053 476.843C177.109 481.963 170.624 483.669 165.483 480.789C160.384 477.867 158.613 471.339 161.536 466.24L184.192 426.688H138.603C132.715 426.688 127.936 421.909 127.936 416.021C127.936 410.133 132.715 405.355 138.603 405.355H184.192L161.536 365.803C158.592 360.704 160.363 354.176 165.483 351.253C170.603 348.331 177.109 350.08 180.053 355.2L202.645 394.581L225.237 355.2C228.16 350.08 234.667 348.331 239.808 351.253C244.907 354.176 246.677 360.704 243.755 365.803L221.099 405.355H266.688C272.576 405.355 277.355 410.133 277.355 416.021C277.355 421.909 272.576 426.688 266.688 426.688H221.099L243.755 466.24C246.699 471.339 244.928 477.867 239.808 480.789C238.123 481.749 236.309 482.197 234.496 482.197ZM330.667 426.581C324.779 426.581 320 421.803 320 415.915C320 410.027 324.779 405.248 330.667 405.248H346.368C423.168 405.248 487.851 345.451 490.56 271.936C493.035 205.141 447.573 146.091 382.507 131.477C366.827 127.957 353.771 117.909 346.731 103.872C316.587 43.712 251.456 11.6267 184.64 24C126.251 34.8373 79.0186 81.408 67.1146 139.925C63.552 157.419 63.04 175.04 65.5573 192.235C68.3306 211.285 63.0186 228.821 50.944 240.341C26.88 263.339 16.6186 296.789 23.4453 329.856C29.5466 359.317 50.7946 385.237 78.9333 397.483C84.3306 399.829 86.784 406.123 84.4373 411.52C82.0906 416.939 75.7973 419.371 70.4 417.045C35.52 401.856 10.176 370.859 2.58131 334.187C-5.78135 293.867 6.80531 253.035 36.2026 224.917C43.2 218.24 46.208 207.445 44.4373 195.328C41.5786 175.68 42.176 155.605 46.208 135.68C59.84 68.736 113.899 15.424 180.779 3.02934C257.003 -11.1573 331.392 25.6 365.824 94.3147C369.963 102.613 377.771 108.565 387.179 110.677C462.293 127.531 514.752 195.669 511.915 272.747C508.779 357.568 434.517 426.581 346.389 426.581H330.688H330.667ZM341.163 311.531C337.472 311.531 333.867 309.611 331.904 306.176L309.312 266.795L286.72 306.176C283.797 311.296 277.269 313.024 272.149 310.123C267.051 307.2 265.28 300.672 268.203 295.573L290.859 256.021H245.269C239.381 256.021 234.603 251.243 234.603 245.355C234.603 239.467 239.381 234.688 245.269 234.688H290.859L268.203 195.136C265.259 190.037 267.029 183.509 272.149 180.587C277.248 177.664 283.797 179.392 286.72 184.533L309.312 223.915L331.904 184.533C334.827 179.392 341.312 177.664 346.475 180.587C351.573 183.509 353.344 190.037 350.421 195.136L327.765 234.688H373.355C379.243 234.688 384.021 239.467 384.021 245.355C384.021 251.243 379.243 256.021 373.355 256.021H327.765L350.421 295.573C353.365 300.672 351.595 307.2 346.475 310.123C344.789 311.083 342.976 311.531 341.163 311.531Z" fill="white"/>
</g>
<defs>
<clipPath id="clip0_148_35">
<rect width="512" height="512" fill="white"/>
</clipPath>
</defs>
</svg>
