<svg width="512" height="512" viewBox="0 0 512 512" fill="none" xmlns="http://www.w3.org/2000/svg">
<g clip-path="url(#clip0_148_25)">
<path d="M436.672 24.448L436.011 24.2133L380.736 5.80268C359.349 -1.30879 336.332 -1.91021 314.603 4.07468L201.387 36.992C190.159 40.0475 178.212 39.035 167.659 34.1334L156.992 29.2267C139.759 22.0644 121.026 19.2638 102.452 21.073C83.8781 22.8822 66.0373 29.2454 50.5107 39.5986C34.9841 49.9517 22.2512 63.9752 13.4404 80.4262C4.62966 96.8771 0.0131494 115.248 0 133.909L0 379.733C0.0493501 404.234 8.01395 428.063 22.7069 447.669C37.3998 467.275 58.0346 481.608 81.536 488.533L139.989 506.816C150.942 510.238 162.349 511.986 173.824 512C184.017 511.795 194.153 510.421 204.032 507.904L322.133 475.307C330.865 472.919 340.087 472.993 348.779 475.52L396.971 489.408C410.666 492.732 424.937 492.902 438.707 489.907C452.478 486.911 465.388 480.828 476.465 472.116C487.542 463.403 496.496 452.29 502.651 439.612C508.807 426.935 512.004 413.026 512 398.933V131.285C511.966 107.89 504.713 85.0749 491.231 65.9542C477.75 46.8335 458.697 32.3387 436.672 24.448ZM298.667 75.392V415.36L213.333 438.933V99.584L298.667 75.392ZM99.8827 427.243C89.5675 424.271 80.4943 418.034 74.0245 409.467C67.5547 400.901 64.0373 390.468 64 379.733V133.909C63.9353 125.756 65.9168 117.717 69.763 110.527C73.6093 103.338 79.1975 97.2282 86.016 92.7574C94.2099 87.2262 103.863 84.2559 113.749 84.224C119.772 84.2094 125.739 85.3838 131.307 87.68L149.333 95.232V442.709L99.8827 427.243ZM448 398.933C447.996 403.227 447.043 407.467 445.21 411.35C443.378 415.232 440.711 418.663 437.399 421.396C434.087 424.128 430.213 426.096 426.053 427.159C421.893 428.221 417.55 428.352 413.333 427.541L362.667 413.227V67.264L415.467 84.8214C424.993 88.3058 433.22 94.6295 439.038 102.939C444.856 111.248 447.984 121.142 448 131.285V398.933Z" fill="white"/>
</g>
<defs>
<clipPath id="clip0_148_25">
<rect width="512" height="512" fill="white"/>
</clipPath>
</defs>
</svg>
