<svg width="512" height="364" viewBox="0 0 512 364" fill="none" xmlns="http://www.w3.org/2000/svg">
<path d="M480 150H32C14.327 150 0 164.327 0 182C0 199.673 14.327 214 32 214H480C497.673 214 512 199.673 512 182C512 164.327 497.673 150 480 150Z" fill="white"/>
<path d="M32 64.667H480C497.673 64.667 512 50.34 512 32.667C512 14.994 497.673 0.666992 480 0.666992H32C14.327 0.666992 0 14.994 0 32.667C0 50.34 14.327 64.667 32 64.667Z" fill="white"/>
<path d="M480 299.333H32C14.327 299.333 0 313.66 0 331.333C0 349.006 14.327 363.333 32 363.333H480C497.673 363.333 512 349.006 512 331.333C512 313.66 497.673 299.333 480 299.333Z" fill="white"/>
</svg>
