<svg width="512" height="512" viewBox="0 0 512 512" fill="none" xmlns="http://www.w3.org/2000/svg">
<path d="M192 256C121.408 256 64 198.592 64 128C64 57.408 121.408 0 192 0C262.592 0 320 57.408 320 128C320 198.592 262.592 256 192 256ZM484.181 408.192L463.403 396.203C466.944 385.6 469.333 374.464 469.333 362.667C469.333 350.869 466.965 339.733 463.403 329.131L484.181 317.141C494.379 311.253 497.877 298.197 491.989 288C486.08 277.781 473.067 274.261 462.848 280.192L442.091 292.181C427.051 275.243 407.019 262.848 384 258.176V234.688C384 222.912 374.443 213.355 362.667 213.355C350.891 213.355 341.333 222.912 341.333 234.688V258.176C318.315 262.869 298.283 275.264 283.243 292.181L262.485 280.192C252.245 274.283 239.232 277.781 233.344 288C227.456 298.219 230.955 311.253 241.152 317.141L261.931 329.131C258.389 339.733 256 350.869 256 362.667C256 374.464 258.368 385.6 261.931 396.203L241.152 408.192C230.955 414.08 227.456 427.136 233.344 437.333C237.312 444.181 244.459 448 251.84 448C255.445 448 259.115 447.083 262.485 445.141L283.243 433.152C298.283 450.091 318.315 462.485 341.333 467.157V490.645C341.333 502.421 350.891 511.979 362.667 511.979C374.443 511.979 384 502.421 384 490.645V467.157C407.019 462.464 427.051 450.069 442.091 433.152L462.848 445.141C466.219 447.083 469.888 448 473.493 448C480.875 448 488.043 444.181 491.989 437.333C497.877 427.115 494.379 414.08 484.181 408.192ZM362.667 394.667C345.024 394.667 330.667 380.309 330.667 362.667C330.667 345.024 345.024 330.667 362.667 330.667C380.309 330.667 394.667 345.024 394.667 362.667C394.667 380.309 380.309 394.667 362.667 394.667ZM170.667 362.667C170.667 340.395 174.656 319.083 181.632 299.2C80.5973 304.619 0 388.309 0 490.667C0 502.443 9.55733 512 21.3333 512H242.112C198.571 476.8 170.667 423.019 170.667 362.667Z" fill="white"/>
</svg>
